<?xml version="1.0" encoding="UTF-8" standalone="no" ?>
<!DOCTYPE svg PUBLIC "-//W3C//DTD SVG 1.1//EN" "http://www.w3.org/Graphics/SVG/1.1/DTD/svg11.dtd">
<svg xmlns="http://www.w3.org/2000/svg" xmlns:xlink="http://www.w3.org/1999/xlink" version="1.1" width="480" height="224" viewBox="0 0 1280 1024" xml:space="preserve">
<desc>Created with Fabric.js 5.3.0</desc>
<defs>
</defs>
<g transform="matrix(1 0 0 1 640 512)" id="background-logo"  >
<rect style="stroke: none; stroke-width: 0; stroke-dasharray: none; stroke-linecap: butt; stroke-dashoffset: 0; stroke-linejoin: miter; stroke-miterlimit: 4; fill: rgb(255,255,255); fill-opacity: 0; fill-rule: nonzero; opacity: 1;"  paint-order="stroke"  x="-640" y="-512" rx="0" ry="0" width="1280" height="1024" />
</g>
<g transform="matrix(1.9211538461538462 0 0 1.9211538461538462 640 393.0248131807381)" id="logo-logo"  >
<g style=""  paint-order="stroke"   >
		<g transform="matrix(3.598660854726393 0 0 3.598660854726393 0 0)"  >
<radialGradient id="SVGID_1_2_579718" gradientUnits="userSpaceOnUse" gradientTransform="matrix(0.02989559 0.01725999 0.01844218 -0.03194419 -191.7672 -356.9761)"  cx="12830.6768" cy="-6496.2646" r="526.89" fx="12830.6768" fy="-6496.2646">
<stop offset="0%" style="stop-color:rgb(0,204,255);stop-opacity: 1"/>
<stop offset="100%" style="stop-color:rgb(0,51,153);stop-opacity: 1"/>
</radialGradient>
<path style="stroke: none; stroke-width: 1; stroke-dasharray: none; stroke-linecap: butt; stroke-dashoffset: 0; stroke-linejoin: miter; stroke-miterlimit: 4; fill: url(#SVGID_1_2_579718); fill-rule: evenodd; opacity: 1;"  paint-order="stroke"  transform=" translate(-71.9375, -72.00180278020574)" d="M 73.8 72.9 C 74.7 72.60000000000001 75.5 73.2 75.5 74.10000000000001 C 75.5 75.00000000000001 74.7 76.00000000000001 73.8 76.30000000000001 C 72.89999999999999 76.60000000000001 72.1 76.00000000000001 72.1 75.10000000000001 C 72.1 74.1 72.8 73.2 73.8 72.9 z M 71.7 70.6 C 71 69.89999999999999 71.10000000000001 69 71.9 68.5 C 72.7 68 73.9 68.2 74.60000000000001 68.9 C 75.30000000000001 69.60000000000001 75.2 70.5 74.4 71 C 73.6 71.5 72.4 71.3 71.7 70.6 z M 67.9 68.2 C 67.30000000000001 67.60000000000001 67.4 66.7 68.10000000000001 66.3 C 68.80000000000001 65.89999999999999 70.00000000000001 66 70.60000000000001 66.7 C 71.2 67.3 71.10000000000001 68.2 70.4 68.60000000000001 C 69.6 69 68.5 68.9 67.9 68.2 z M 63.9 65.8 C 63.3 65.2 63.4 64.5 64.1 64.1 C 64.8 63.699999999999996 65.8 63.89999999999999 66.3 64.39999999999999 C 66.89999999999999 64.99999999999999 66.8 65.69999999999999 66.1 66.1 C 65.5 66.5 64.5 66.4 63.9 65.8 z M 59.9 63.3 C 59.4 62.8 59.5 62.099999999999994 60.1 61.8 C 60.7 61.5 61.6 61.599999999999994 62.1 62.099999999999994 C 62.6 62.599999999999994 62.5 63.3 61.9 63.599999999999994 C 61.3 64 60.4 63.8 59.9 63.3 z M 55.7 60.8 C 55.300000000000004 60.4 55.300000000000004 59.8 55.800000000000004 59.4 C 56.300000000000004 59.1 57.1 59.199999999999996 57.6 59.699999999999996 C 58 60.099999999999994 58 60.699999999999996 57.5 61.099999999999994 C 56.9 61.3 56.2 61.2 55.7 60.8 z M 51.4 58.2 C 51 57.800000000000004 51.1 57.300000000000004 51.5 57 C 52 56.7 52.6 56.8 53 57.2 C 53.4 57.6 53.3 58.1 52.9 58.400000000000006 C 52.5 58.6 51.8 58.5 51.4 58.2 z M 75.4 68.5 C 74.7 67.8 74.80000000000001 66.9 75.60000000000001 66.4 C 76.4 65.9 77.60000000000001 66.10000000000001 78.30000000000001 66.80000000000001 C 79.00000000000001 67.50000000000001 78.9 68.4 78.10000000000001 68.9 C 77.3 69.4 76.1 69.2 75.4 68.5 z M 71.6 66.1 C 71 65.5 71.1 64.6 71.8 64.19999999999999 C 72.5 63.79999999999999 73.7 63.89999999999999 74.3 64.6 C 74.89999999999999 65.19999999999999 74.8 66.1 74.1 66.5 C 73.3 66.9 72.2 66.7 71.6 66.1 z M 67.7 63.7 C 67.10000000000001 63.1 67.2 62.400000000000006 67.9 62 C 68.60000000000001 61.6 69.60000000000001 61.8 70.10000000000001 62.3 C 70.7 62.9 70.60000000000001 63.599999999999994 69.9 64 C 69.2 64.4 68.2 64.2 67.7 63.7 z M 63.6 61.2 C 63.1 60.7 63.2 60 63.800000000000004 59.7 C 64.4 59.400000000000006 65.30000000000001 59.5 65.80000000000001 60 C 66.30000000000001 60.5 66.20000000000002 61.2 65.60000000000001 61.5 C 65 61.8 64.1 61.7 63.6 61.2 z M 59.5 58.6 C 59.1 58.2 59.1 57.6 59.6 57.2 C 60.1 56.900000000000006 60.9 57 61.4 57.5 C 61.8 57.9 61.8 58.5 61.3 58.9 C 60.7 59.1 59.9 59 59.5 58.6 z M 55.3 56 C 54.9 55.6 55 55.1 55.4 54.8 C 55.9 54.5 56.5 54.599999999999994 56.9 55 C 57.3 55.4 57.199999999999996 55.9 56.8 56.2 C 56.3 56.4 55.6 56.3 55.3 56 z M 79.2 66.3 C 78.5 65.6 78.60000000000001 64.7 79.4 64.2 C 80.2 63.7 81.4 63.900000000000006 82.10000000000001 64.60000000000001 C 82.80000000000001 65.30000000000001 82.7 66.2 81.9 66.7 C 81.1 67.2 79.8 67 79.2 66.3 z M 75.4 63.9 C 74.80000000000001 63.3 74.9 62.4 75.60000000000001 62 C 76.30000000000001 61.6 77.50000000000001 61.7 78.10000000000001 62.4 C 78.7 63 78.60000000000001 63.9 77.9 64.3 C 77.1 64.7 76 64.5 75.4 63.9 z M 71.5 61.5 C 70.9 60.9 71 60.2 71.7 59.8 C 72.4 59.4 73.4 59.599999999999994 73.9 60.099999999999994 C 74.5 60.699999999999996 74.4 61.39999999999999 73.7 61.8 C 73 62.2 72 62 71.5 61.5 z M 67.5 58.9 C 67 58.4 67.1 57.699999999999996 67.7 57.4 C 68.3 57.1 69.2 57.199999999999996 69.7 57.699999999999996 C 70.2 58.199999999999996 70.10000000000001 58.9 69.5 59.199999999999996 C 68.9 59.6 68 59.4 67.5 58.9 z M 63.4 56.4 C 63 56 63 55.4 63.5 55 C 64 54.7 64.8 54.8 65.3 55.3 C 65.7 55.699999999999996 65.7 56.3 65.2 56.699999999999996 C 64.6 56.9 63.8 56.8 63.4 56.4 z M 59.2 53.7 C 58.800000000000004 53.300000000000004 58.900000000000006 52.800000000000004 59.300000000000004 52.5 C 59.800000000000004 52.2 60.400000000000006 52.3 60.800000000000004 52.7 C 61.2 53.1 61.1 53.6 60.7 53.900000000000006 C 60.300000000000004 54.20000000000001 59.5 54.1 59.2 53.7 z M 83 64.1 C 82.3 63.39999999999999 82.4 62.49999999999999 83.2 61.99999999999999 C 84 61.49999999999999 85.2 61.699999999999996 85.9 62.39999999999999 C 86.60000000000001 63.099999999999994 86.5 63.99999999999999 85.7 64.49999999999999 C 84.9 64.9 83.7 64.8 83 64.1 z M 79.3 61.7 C 78.7 61.1 78.8 60.2 79.5 59.800000000000004 C 80.2 59.400000000000006 81.4 59.50000000000001 82 60.2 C 82.6 60.800000000000004 82.5 61.7 81.8 62.1 C 81 62.5 79.9 62.3 79.3 61.7 z M 75.4 59.2 C 74.80000000000001 58.6 74.9 57.900000000000006 75.60000000000001 57.5 C 76.30000000000001 57.1 77.30000000000001 57.3 77.80000000000001 57.8 C 78.4 58.4 78.30000000000001 59.099999999999994 77.60000000000001 59.5 C 77 59.9 76 59.8 75.4 59.2 z M 71.4 56.7 C 70.9 56.2 71 55.5 71.60000000000001 55.2 C 72.2 54.900000000000006 73.10000000000001 55 73.60000000000001 55.5 C 74.10000000000001 56 74.00000000000001 56.7 73.4 57 C 72.8 57.3 71.9 57.2 71.4 56.7 z M 67.4 54.1 C 67 53.7 67 53.1 67.5 52.7 C 68 52.400000000000006 68.8 52.5 69.3 53 C 69.7 53.4 69.7 54 69.2 54.4 C 68.6 54.6 67.8 54.5 67.4 54.1 z M 63.2 51.4 C 62.800000000000004 51 62.900000000000006 50.5 63.300000000000004 50.199999999999996 C 63.800000000000004 49.9 64.4 49.99999999999999 64.80000000000001 50.4 C 65.20000000000002 50.8 65.10000000000001 51.3 64.70000000000002 51.6 C 64.30000000000003 51.900000000000006 63.5 51.8 63.2 51.4 z M 87 61.8 C 86.3 61.099999999999994 86.4 60.199999999999996 87.2 59.699999999999996 C 88 59.199999999999996 89.2 59.4 89.9 60.099999999999994 C 90.60000000000001 60.8 90.5 61.699999999999996 89.7 62.199999999999996 C 88.9 62.7 87.7 62.5 87 61.8 z M 83.3 59.4 C 82.7 58.8 82.8 57.9 83.5 57.5 C 84.2 57.1 85.4 57.2 86 57.9 C 86.6 58.5 86.5 59.4 85.8 59.8 C 85 60.1 83.9 60 83.3 59.4 z M 79.4 56.9 C 78.80000000000001 56.3 78.9 55.6 79.60000000000001 55.199999999999996 C 80.30000000000001 54.8 81.30000000000001 54.99999999999999 81.80000000000001 55.49999999999999 C 82.4 56.099999999999994 82.30000000000001 56.79999999999999 81.60000000000001 57.199999999999996 C 81 57.6 80 57.4 79.4 56.9 z M 75.5 54.3 C 75 53.8 75.1 53.099999999999994 75.7 52.8 C 76.3 52.5 77.2 52.599999999999994 77.7 53.099999999999994 C 78.2 53.599999999999994 78.10000000000001 54.3 77.5 54.599999999999994 C 76.9 55 76 54.8 75.5 54.3 z M 71.4 51.7 C 71 51.300000000000004 71 50.7 71.5 50.300000000000004 C 72 50.00000000000001 72.8 50.1 73.3 50.6 C 73.7 51 73.7 51.6 73.2 52 C 72.7 52.3 71.9 52.1 71.4 51.7 z M 67.3 49 C 66.89999999999999 48.6 67 48.1 67.39999999999999 47.8 C 67.89999999999999 47.5 68.49999999999999 47.599999999999994 68.89999999999999 48 C 69.3 48.4 69.19999999999999 48.9 68.8 49.2 C 68.3 49.5 67.7 49.4 67.3 49 z M 91.1 59.4 C 90.39999999999999 58.699999999999996 90.5 57.8 91.3 57.3 C 92.1 56.8 93.3 57 94 57.699999999999996 C 94.7 58.4 94.6 59.3 93.8 59.8 C 93 60.3 91.8 60.1 91.1 59.4 z M 87.4 57 C 86.80000000000001 56.4 86.9 55.5 87.60000000000001 55.1 C 88.30000000000001 54.7 89.50000000000001 54.800000000000004 90.10000000000001 55.5 C 90.7 56.1 90.60000000000001 57 89.9 57.4 C 89.1 57.8 88 57.6 87.4 57 z M 83.6 54.5 C 83 53.9 83.1 53.2 83.8 52.8 C 84.5 52.4 85.5 52.599999999999994 86 53.099999999999994 C 86.6 53.699999999999996 86.5 54.39999999999999 85.8 54.8 C 85.1 55.2 84.1 55 83.6 54.5 z M 79.7 51.9 C 79.2 51.4 79.3 50.699999999999996 79.9 50.4 C 80.5 50.1 81.4 50.199999999999996 81.9 50.699999999999996 C 82.4 51.199999999999996 82.30000000000001 51.9 81.7 52.199999999999996 C 81.1 52.5 80.2 52.4 79.7 51.9 z M 75.6 49.3 C 75.19999999999999 48.9 75.19999999999999 48.3 75.69999999999999 47.9 C 76.19999999999999 47.6 76.99999999999999 47.699999999999996 77.49999999999999 48.199999999999996 C 77.89999999999999 48.599999999999994 77.89999999999999 49.199999999999996 77.39999999999999 49.599999999999994 C 76.9 49.8 76.1 49.7 75.6 49.3 z M 71.5 46.6 C 71.1 46.2 71.2 45.7 71.6 45.4 C 72.1 45.1 72.69999999999999 45.199999999999996 73.1 45.6 C 73.5 46 73.39999999999999 46.5 73 46.800000000000004 C 72.6 47 71.9 46.9 71.5 46.6 z M 70.7 73.6 C 70.4 74.5 69.60000000000001 74.89999999999999 68.8 74.5 C 68 74 67.5 72.9 67.8 71.9 C 68.1 71 68.89999999999999 70.60000000000001 69.7 71 C 70.5 71.5 71 72.6 70.7 73.6 z M 70.6 78.1 C 70.39999999999999 79 69.6 79.3 68.8 78.89999999999999 C 68.1 78.49999999999999 67.6 77.39999999999999 67.89999999999999 76.6 C 68.1 75.69999999999999 68.89999999999999 75.39999999999999 69.69999999999999 75.8 C 70.4 76.2 70.8 77.2 70.6 78.1 z M 70.5 82.7 C 70.3 83.5 69.6 83.8 68.9 83.4 C 68.2 83 67.9 82.10000000000001 68.10000000000001 81.30000000000001 C 68.30000000000001 80.50000000000001 69.00000000000001 80.20000000000002 69.7 80.60000000000001 C 70.3 81 70.7 81.9 70.5 82.7 z M 70.4 87.5 C 70.2 88.2 69.60000000000001 88.5 69 88.1 C 68.4 87.8 68.1 86.89999999999999 68.3 86.19999999999999 C 68.5 85.49999999999999 69.1 85.19999999999999 69.7 85.6 C 70.2 85.9 70.5 86.8 70.4 87.5 z M 70.2 92.3 C 70 92.89999999999999 69.5 93.2 69 92.8 C 68.5 92.5 68.2 91.8 68.3 91.2 C 68.5 90.60000000000001 69 90.3 69.5 90.7 C 70.1 91 70.4 91.7 70.2 92.3 z M 70.1 97.4 C 70 97.9 69.5 98.10000000000001 69 97.9 C 68.5 97.60000000000001 68.3 97 68.4 96.5 C 68.5 96 69 95.8 69.5 96 C 70 96.2 70.2 96.8 70.1 97.4 z M 67.1 71.4 C 66.8 72.30000000000001 66 72.7 65.19999999999999 72.30000000000001 C 64.39999999999999 71.80000000000001 63.89999999999999 70.70000000000002 64.19999999999999 69.70000000000002 C 64.49999999999999 68.80000000000001 65.29999999999998 68.40000000000002 66.1 68.80000000000001 C 66.9 69.4 67.3 70.5 67.1 71.4 z M 66.9 75.9 C 66.7 76.80000000000001 65.9 77.10000000000001 65.10000000000001 76.7 C 64.4 76.3 63.900000000000006 75.2 64.2 74.4 C 64.4 73.5 65.2 73.2 66 73.60000000000001 C 66.7 74 67.1 75.1 66.9 75.9 z M 66.8 80.5 C 66.6 81.3 65.89999999999999 81.6 65.2 81.2 C 64.5 80.8 64.2 79.9 64.4 79.10000000000001 C 64.60000000000001 78.30000000000001 65.30000000000001 78.00000000000001 66 78.4 C 66.6 78.8 67 79.8 66.8 80.5 z M 66.6 85.3 C 66.39999999999999 86 65.8 86.3 65.19999999999999 85.89999999999999 C 64.6 85.6 64.29999999999998 84.69999999999999 64.49999999999999 83.99999999999999 C 64.69999999999999 83.29999999999998 65.29999999999998 82.99999999999999 65.89999999999999 83.39999999999999 C 66.5 83.8 66.8 84.6 66.6 85.3 z M 66.4 90.2 C 66.2 90.8 65.7 91.10000000000001 65.2 90.7 C 64.7 90.4 64.4 89.7 64.5 89.10000000000001 C 64.7 88.50000000000001 65.2 88.2 65.7 88.60000000000001 C 66.3 88.8 66.6 89.5 66.4 90.2 z M 66.3 95.2 C 66.2 95.7 65.7 95.9 65.2 95.7 C 64.7 95.4 64.5 94.8 64.60000000000001 94.3 C 64.7 93.8 65.2 93.6 65.7 93.8 C 66.2 94 66.4 94.6 66.3 95.2 z M 63.3 69.3 C 63 70.2 62.199999999999996 70.6 61.4 70.2 C 60.6 69.7 60.1 68.60000000000001 60.4 67.60000000000001 C 60.699999999999996 66.7 61.5 66.30000000000001 62.3 66.7 C 63.1 67.2 63.6 68.3 63.3 69.3 z M 63.1 73.7 C 62.9 74.60000000000001 62.1 74.9 61.300000000000004 74.5 C 60.6 74.1 60.1 73 60.400000000000006 72.2 C 60.60000000000001 71.3 61.400000000000006 71 62.2 71.4 C 62.9 71.8 63.3 72.9 63.1 73.7 z M 62.9 78.3 C 62.699999999999996 79.1 62 79.39999999999999 61.3 79 C 60.599999999999994 78.6 60.3 77.7 60.5 76.9 C 60.7 76.10000000000001 61.4 75.80000000000001 62.1 76.2 C 62.8 76.6 63.1 77.6 62.9 78.3 z M 62.8 83.1 C 62.599999999999994 83.8 62 84.1 61.4 83.69999999999999 C 60.8 83.39999999999999 60.5 82.49999999999999 60.699999999999996 81.79999999999998 C 60.9 81.09999999999998 61.49999999999999 80.79999999999998 62.099999999999994 81.19999999999999 C 62.6 81.5 62.9 82.4 62.8 83.1 z M 62.6 87.9 C 62.4 88.5 61.9 88.80000000000001 61.4 88.4 C 60.9 88.10000000000001 60.6 87.4 60.699999999999996 86.80000000000001 C 60.9 86.20000000000002 61.4 85.9 61.9 86.30000000000001 C 62.4 86.6 62.7 87.3 62.6 87.9 z M 62.4 92.9 C 62.3 93.4 61.8 93.60000000000001 61.3 93.4 C 60.8 93.10000000000001 60.599999999999994 92.5 60.699999999999996 92 C 60.8 91.5 61.3 91.3 61.8 91.5 C 62.3 91.7 62.5 92.4 62.4 92.9 z M 59.4 67 C 59.1 67.9 58.3 68.3 57.5 67.9 C 56.7 67.4 56.2 66.30000000000001 56.5 65.30000000000001 C 56.8 64.4 57.6 64.00000000000001 58.4 64.4 C 59.2 64.9 59.7 66.1 59.4 67 z M 59.2 71.5 C 59 72.4 58.2 72.7 57.400000000000006 72.3 C 56.7 71.89999999999999 56.2 70.8 56.50000000000001 70 C 56.70000000000001 69.1 57.50000000000001 68.8 58.300000000000004 69.2 C 59 69.6 59.5 70.6 59.2 71.5 z M 59 76.1 C 58.8 76.89999999999999 58.1 77.19999999999999 57.4 76.8 C 56.699999999999996 76.39999999999999 56.4 75.5 56.6 74.7 C 56.800000000000004 73.9 57.5 73.60000000000001 58.2 74 C 58.8 74.4 59.2 75.3 59 76.1 z M 58.8 80.8 C 58.599999999999994 81.5 58 81.8 57.4 81.39999999999999 C 56.8 81.1 56.5 80.19999999999999 56.699999999999996 79.49999999999999 C 56.9 78.79999999999998 57.49999999999999 78.49999999999999 58.099999999999994 78.89999999999999 C 58.7 79.3 59 80.1 58.8 80.8 z M 58.6 85.6 C 58.4 86.19999999999999 57.9 86.5 57.4 86.1 C 56.9 85.8 56.6 85.1 56.699999999999996 84.5 C 56.9 83.9 57.4 83.6 57.9 84 C 58.5 84.3 58.7 85 58.6 85.6 z M 58.4 90.6 C 58.3 91.1 57.8 91.3 57.3 91.1 C 56.8 90.8 56.599999999999994 90.19999999999999 56.699999999999996 89.69999999999999 C 56.8 89.19999999999999 57.3 88.99999999999999 57.8 89.19999999999999 C 58.3 89.4 58.5 90.1 58.4 90.6 z M 55.5 64.7 C 55.2 65.60000000000001 54.4 66 53.6 65.60000000000001 C 52.800000000000004 65.10000000000001 52.300000000000004 64.00000000000001 52.6 63.00000000000001 C 52.9 62.10000000000001 53.7 61.70000000000001 54.5 62.10000000000001 C 55.3 62.7 55.7 63.8 55.5 64.7 z M 55.2 69.2 C 55 70.10000000000001 54.2 70.4 53.400000000000006 70 C 52.7 69.6 52.2 68.5 52.50000000000001 67.7 C 52.70000000000001 66.8 53.50000000000001 66.5 54.300000000000004 66.9 C 55 67.3 55.5 68.3 55.2 69.2 z M 55 73.8 C 54.8 74.6 54.1 74.89999999999999 53.4 74.5 C 52.699999999999996 74.1 52.4 73.2 52.6 72.4 C 52.800000000000004 71.60000000000001 53.5 71.30000000000001 54.2 71.7 C 54.8 72 55.2 73 55 73.8 z M 54.7 78.4 C 54.5 79.10000000000001 53.900000000000006 79.4 53.300000000000004 79 C 52.7 78.7 52.400000000000006 77.8 52.6 77.1 C 52.800000000000004 76.39999999999999 53.4 76.1 54 76.5 C 54.6 76.9 54.9 77.8 54.7 78.4 z M 54.5 83.3 C 54.3 83.89999999999999 53.8 84.2 53.3 83.8 C 52.8 83.5 52.5 82.8 52.599999999999994 82.2 C 52.8 81.60000000000001 53.3 81.3 53.8 81.7 C 54.4 81.9 54.7 82.6 54.5 83.3 z M 54.2 88.2 C 54.1 88.7 53.6 88.9 53.1 88.7 C 52.6 88.4 52.4 87.8 52.5 87.3 C 52.6 86.8 53.1 86.6 53.6 86.8 C 54.1 87 54.4 87.7 54.2 88.2 z M 51.4 62.4 C 51.1 63.3 50.3 63.699999999999996 49.5 63.3 C 48.7 62.8 48.2 61.699999999999996 48.5 60.699999999999996 C 48.8 59.8 49.6 59.4 50.4 59.8 C 51.2 60.3 51.6 61.4 51.4 62.4 z M 51.1 66.8 C 50.9 67.7 50.1 68 49.300000000000004 67.6 C 48.6 67.19999999999999 48.1 66.1 48.400000000000006 65.3 C 48.60000000000001 64.39999999999999 49.400000000000006 64.1 50.2 64.5 C 50.9 64.9 51.3 66 51.1 66.8 z M 50.8 71.4 C 50.599999999999994 72.2 49.9 72.5 49.199999999999996 72.10000000000001 C 48.49999999999999 71.7 48.199999999999996 70.80000000000001 48.4 70.00000000000001 C 48.6 69.20000000000002 49.3 68.90000000000002 50 69.30000000000001 C 50.7 69.7 51.1 70.6 50.8 71.4 z M 50.6 76 C 50.4 76.7 49.800000000000004 77 49.2 76.6 C 48.6 76.3 48.300000000000004 75.39999999999999 48.5 74.69999999999999 C 48.7 73.99999999999999 49.3 73.69999999999999 49.9 74.1 C 50.4 74.5 50.8 75.3 50.6 76 z M 50.3 80.8 C 50.099999999999994 81.39999999999999 49.599999999999994 81.7 49.099999999999994 81.3 C 48.599999999999994 81 48.3 80.3 48.39999999999999 79.7 C 48.599999999999994 79.10000000000001 49.099999999999994 78.8 49.599999999999994 79.2 C 50.2 79.5 50.5 80.2 50.3 80.8 z M 77.8 70.8 C 78.7 70.6 79.39999999999999 71.1 79.39999999999999 71.89999999999999 C 79.39999999999999 72.8 78.69999999999999 73.6 77.8 73.89999999999999 C 76.89999999999999 74.1 76.2 73.6 76.2 72.8 C 76.2 71.9 76.9 71 77.8 70.8 z M 81.8 68.6 C 82.6 68.39999999999999 83.2 68.89999999999999 83.2 69.6 C 83.2 70.39999999999999 82.60000000000001 71.19999999999999 81.8 71.39999999999999 C 81 71.6 80.39999999999999 71.1 80.39999999999999 70.39999999999999 C 80.4 69.6 81.1 68.8 81.8 68.6 z M 86 66.3 C 86.7 66.1 87.2 66.5 87.2 67.2 C 87.2 67.9 86.60000000000001 68.60000000000001 86 68.8 C 85.3 69 84.8 68.6 84.8 67.89999999999999 C 84.8 67.2 85.3 66.5 86 66.3 z M 90.3 64 C 90.89999999999999 63.8 91.39999999999999 64.2 91.39999999999999 64.8 C 91.39999999999999 65.39999999999999 90.89999999999999 66 90.3 66.2 C 89.7 66.4 89.2 66 89.2 65.4 C 89.2 64.8 89.7 64.2 90.3 64 z M 94.7 61.6 C 95.2 61.5 95.60000000000001 61.800000000000004 95.60000000000001 62.300000000000004 C 95.60000000000001 62.800000000000004 95.2 63.400000000000006 94.7 63.50000000000001 C 94.2 63.60000000000001 93.8 63.300000000000004 93.8 62.800000000000004 C 93.8 62.3 94.2 61.7 94.7 61.6 z M 73.8 77.2 C 74.7 76.9 75.5 77.5 75.5 78.4 C 75.5 79.30000000000001 74.7 80.30000000000001 73.8 80.60000000000001 C 72.89999999999999 80.9 72.1 80.30000000000001 72.1 79.4 C 72.1 78.4 72.8 77.4 73.8 77.2 z M 77.8 75.1 C 78.7 74.89999999999999 79.39999999999999 75.39999999999999 79.39999999999999 76.19999999999999 C 79.39999999999999 77.1 78.69999999999999 77.89999999999999 77.8 78.19999999999999 C 76.89999999999999 78.39999999999999 76.2 77.89999999999999 76.2 77.1 C 76.2 76.2 76.9 75.3 77.8 75.1 z M 81.8 72.9 C 82.6 72.7 83.2 73.2 83.2 73.9 C 83.2 74.7 82.60000000000001 75.5 81.8 75.7 C 81 75.9 80.39999999999999 75.4 80.39999999999999 74.7 C 80.4 73.9 81.1 73.1 81.8 72.9 z M 86 70.7 C 86.7 70.5 87.2 70.9 87.2 71.60000000000001 C 87.2 72.30000000000001 86.60000000000001 73.00000000000001 86 73.2 C 85.3 73.4 84.8 73 84.8 72.3 C 84.8 71.5 85.3 70.8 86 70.7 z M 90.3 68.4 C 90.89999999999999 68.2 91.39999999999999 68.60000000000001 91.39999999999999 69.2 C 91.39999999999999 69.8 90.89999999999999 70.4 90.3 70.60000000000001 C 89.7 70.80000000000001 89.2 70.4 89.2 69.80000000000001 C 89.2 69.1 89.7 68.5 90.3 68.4 z M 94.7 66 C 95.2 65.9 95.60000000000001 66.2 95.60000000000001 66.7 C 95.60000000000001 67.2 95.2 67.8 94.7 67.9 C 94.2 68 93.8 67.7 93.8 67.2 C 93.8 66.7 94.2 66.1 94.7 66 z M 73.8 81.5 C 74.7 81.2 75.5 81.8 75.5 82.7 C 75.5 83.60000000000001 74.7 84.60000000000001 73.8 84.9 C 72.89999999999999 85.2 72.1 84.60000000000001 72.1 83.7 C 72.1 82.7 72.8 81.8 73.8 81.5 z M 77.8 79.4 C 78.7 79.2 79.39999999999999 79.7 79.39999999999999 80.5 C 79.39999999999999 81.4 78.69999999999999 82.2 77.8 82.5 C 76.89999999999999 82.7 76.2 82.2 76.2 81.4 C 76.2 80.5 76.9 79.7 77.8 79.4 z M 81.8 77.3 C 82.6 77.1 83.2 77.6 83.2 78.3 C 83.2 79.1 82.60000000000001 79.89999999999999 81.8 80.1 C 81 80.3 80.39999999999999 79.8 80.39999999999999 79.1 C 80.4 78.3 81.1 77.5 81.8 77.3 z M 86 75.1 C 86.7 74.89999999999999 87.2 75.3 87.2 76 C 87.2 76.7 86.60000000000001 77.4 86 77.6 C 85.3 77.8 84.8 77.39999999999999 84.8 76.69999999999999 C 84.8 76 85.3 75.3 86 75.1 z M 90.3 72.8 C 90.89999999999999 72.6 91.39999999999999 73 91.39999999999999 73.6 C 91.39999999999999 74.19999999999999 90.89999999999999 74.8 90.3 75 C 89.7 75.2 89.2 74.8 89.2 74.2 C 89.2 73.60000000000001 89.7 73 90.3 72.8 z M 94.7 70.5 C 95.2 70.4 95.60000000000001 70.7 95.60000000000001 71.2 C 95.60000000000001 71.7 95.2 72.3 94.7 72.4 C 94.2 72.5 93.8 72.2 93.8 71.7 C 93.8 71.2 94.2 70.7 94.7 70.5 z M 73.8 86 C 74.7 85.7 75.5 86.3 75.5 87.2 C 75.5 88.10000000000001 74.7 89.10000000000001 73.8 89.4 C 72.89999999999999 89.7 72.1 89.10000000000001 72.1 88.2 C 72.1 87.2 72.8 86.2 73.8 86 z M 77.8 83.9 C 78.7 83.7 79.39999999999999 84.2 79.39999999999999 85 C 79.39999999999999 85.9 78.69999999999999 86.7 77.8 87 C 76.89999999999999 87.2 76.2 86.7 76.2 85.9 C 76.2 85 76.9 84.2 77.8 83.9 z M 81.8 81.8 C 82.6 81.6 83.2 82.1 83.2 82.8 C 83.2 83.6 82.60000000000001 84.39999999999999 81.8 84.6 C 81 84.8 80.39999999999999 84.3 80.39999999999999 83.6 C 80.4 82.8 81.1 82 81.8 81.8 z M 86 79.7 C 86.7 79.5 87.2 79.9 87.2 80.60000000000001 C 87.2 81.30000000000001 86.60000000000001 82.00000000000001 86 82.2 C 85.3 82.4 84.8 82 84.8 81.3 C 84.8 80.6 85.3 79.8 86 79.7 z M 90.3 77.4 C 90.89999999999999 77.2 91.39999999999999 77.60000000000001 91.39999999999999 78.2 C 91.39999999999999 78.8 90.89999999999999 79.4 90.3 79.60000000000001 C 89.7 79.80000000000001 89.2 79.4 89.2 78.80000000000001 C 89.2 78.2 89.7 77.6 90.3 77.4 z M 94.7 75.1 C 95.2 75 95.60000000000001 75.3 95.60000000000001 75.8 C 95.60000000000001 76.3 95.2 76.89999999999999 94.7 77 C 94.2 77.1 93.8 76.8 93.8 76.3 C 93.8 75.8 94.2 75.3 94.7 75.1 z M 73.8 90.6 C 74.7 90.3 75.5 90.89999999999999 75.5 91.8 C 75.5 92.7 74.7 93.7 73.8 94 C 72.89999999999999 94.3 72.1 93.7 72.1 92.8 C 72.1 91.8 72.8 90.8 73.8 90.6 z M 77.8 88.6 C 78.7 88.39999999999999 79.39999999999999 88.89999999999999 79.39999999999999 89.69999999999999 C 79.39999999999999 90.6 78.69999999999999 91.39999999999999 77.8 91.69999999999999 C 76.89999999999999 91.89999999999999 76.2 91.39999999999999 76.2 90.6 C 76.2 89.7 76.9 88.8 77.8 88.6 z M 81.8 86.5 C 82.6 86.3 83.2 86.8 83.2 87.5 C 83.2 88.3 82.60000000000001 89.1 81.8 89.3 C 81 89.5 80.39999999999999 89 80.39999999999999 88.3 C 80.4 87.5 81.1 86.7 81.8 86.5 z M 86 84.3 C 86.7 84.1 87.2 84.5 87.2 85.2 C 87.2 85.9 86.60000000000001 86.60000000000001 86 86.8 C 85.3 87 84.8 86.6 84.8 85.89999999999999 C 84.8 85.2 85.3 84.5 86 84.3 z M 90.3 82.2 C 90.89999999999999 82 91.39999999999999 82.4 91.39999999999999 83 C 91.39999999999999 83.6 90.89999999999999 84.2 90.3 84.4 C 89.7 84.60000000000001 89.2 84.2 89.2 83.60000000000001 C 89.2 82.9 89.7 82.3 90.3 82.2 z M 94.7 79.9 C 95.2 79.80000000000001 95.60000000000001 80.10000000000001 95.60000000000001 80.60000000000001 C 95.60000000000001 81.10000000000001 95.2 81.7 94.7 81.80000000000001 C 94.2 81.9 93.8 81.60000000000001 93.8 81.10000000000001 C 93.8 80.6 94.2 80 94.7 79.9 z M 73.8 95.3 C 74.7 95 75.5 95.6 75.5 96.5 C 75.5 97.4 74.7 98.4 73.8 98.7 C 72.89999999999999 99 72.1 98.4 72.1 97.5 C 72.1 96.5 72.8 95.5 73.8 95.3 z M 77.8 93.3 C 78.7 93.1 79.39999999999999 93.6 79.39999999999999 94.39999999999999 C 79.39999999999999 95.3 78.69999999999999 96.1 77.8 96.39999999999999 C 76.89999999999999 96.6 76.2 96.1 76.2 95.3 C 76.2 94.4 76.9 93.5 77.8 93.3 z M 81.8 91.3 C 82.6 91.1 83.2 91.6 83.2 92.3 C 83.2 93.1 82.60000000000001 93.89999999999999 81.8 94.1 C 81 94.3 80.39999999999999 93.8 80.39999999999999 93.1 C 80.4 92.3 81.1 91.5 81.8 91.3 z M 86 89.2 C 86.7 89 87.2 89.4 87.2 90.10000000000001 C 87.2 90.80000000000001 86.60000000000001 91.50000000000001 86 91.7 C 85.3 91.9 84.8 91.5 84.8 90.8 C 84.8 90.1 85.3 89.3 86 89.2 z M 90.3 87 C 90.89999999999999 86.8 91.39999999999999 87.2 91.39999999999999 87.8 C 91.39999999999999 88.39999999999999 90.89999999999999 89 90.3 89.2 C 89.7 89.4 89.2 89 89.2 88.4 C 89.2 87.8 89.7 87.2 90.3 87 z M 94.7 84.8 C 95.2 84.7 95.60000000000001 85 95.60000000000001 85.5 C 95.60000000000001 86 95.2 86.6 94.7 86.7 C 94.2 86.8 93.8 86.5 93.8 86 C 93.8 85.5 94.2 84.9 94.7 84.8 z M 50 85.8 C 49.9 86.3 49.4 86.5 48.9 86.3 C 48.4 86 48.199999999999996 85.39999999999999 48.3 84.89999999999999 C 48.4 84.39999999999999 48.9 84.19999999999999 49.4 84.39999999999999 C 49.9 84.6 50.2 85.2 50 85.8 z" stroke-linecap="round" />
</g>
</g>
</g>
<g transform="matrix(1.9211538461538462 0 0 1.9211538461538462 651.8579701086757 647.76366606845)" id="text-logo"  >
<g style=""  paint-order="stroke"   >
		<g transform="matrix(1 0 0 1 5.684342e-14 0)" id="text-logo-path-0"  >
<path style="stroke: none; stroke-width: 0; stroke-dasharray: none; stroke-linecap: butt; stroke-dashoffset: 0; stroke-linejoin: miter; stroke-miterlimit: 4; fill: rgb(0,51,153); fill-rule: nonzero; opacity: 1;"  paint-order="stroke"  transform=" translate(-306.46, 15.375)" d="M 6.6 -2.2 L 6.6 -10.69 L 13.16 -10.69 C 18.66 -10.69 23.14 -15.27 23.14 -20.81 C 23.14 -26.31 18.66 -30.8 13.16 -30.8 L 4.4 -30.8 C 2.95 -30.8 1.76 -29.61 1.76 -28.16 L 1.76 -2.2 C 1.76 -0.84 2.86 0.22 4.18 0.22 C 5.5 0.22 6.6 -0.84 6.6 -2.2 Z M 6.6 -15.53 L 6.6 -25.96 L 13.16 -25.96 C 16.28 -25.96 18.3 -23.94 18.3 -20.81 C 18.3 -17.6 16.28 -15.53 13.16 -15.53 Z M 62.3 -2.2 L 62.3 -28.07 C 62.3 -30.89 58.56 -31.86 57.11 -29.52 L 47.78 -14.83 L 38.46 -29.52 C 37 -31.86 33.26 -30.89 33.26 -28.07 L 33.26 -2.2 C 33.26 -0.84 34.36 0.22 35.68 0.22 C 37 0.22 38.1 -0.84 38.1 -2.2 L 38.1 -21.03 L 45.5 -9.46 C 46.51 -7.7 49.06 -7.7 50.07 -9.46 L 57.46 -21.08 L 57.46 -2.2 C 57.46 -0.84 58.56 0.22 59.88 0.22 C 61.2 0.22 62.3 -0.84 62.3 -2.2 Z M 49.59 -12.01 C 49.63 -11.97 49.68 -11.92 49.68 -11.88 Z M 92.66 -2.2 L 92.58 -21.96 L 109.25 -1.01 C 110.92 0.97 114.22 -0.13 114.22 -2.77 L 114.22 -28.64 C 114.22 -29.96 113.12 -31.06 111.8 -31.06 C 110.48 -31.06 109.38 -29.96 109.38 -28.64 L 109.38 -8.62 L 92.49 -29.83 C 90.95 -31.86 87.74 -30.54 87.74 -28.07 L 87.82 -2.16 C 87.82 -0.84 88.92 0.26 90.24 0.26 C 91.56 0.26 92.66 -0.84 92.66 -2.2 Z M 142.69 -4.84 L 129.18 -4.84 L 129.18 -12.98 L 139.61 -12.98 C 140.93 -12.98 142.03 -14.08 142.03 -15.4 C 142.03 -16.72 140.93 -17.82 139.61 -17.82 L 129.18 -17.82 L 129.18 -25.96 L 142.69 -25.96 C 144.01 -25.96 145.11 -27.06 145.11 -28.38 C 145.11 -29.7 144.01 -30.8 142.69 -30.8 L 126.98 -30.8 C 125.53 -30.8 124.34 -29.61 124.34 -28.16 L 124.34 -2.64 C 124.34 -1.19 125.53 0 126.98 0 L 142.69 0 C 144.01 0 145.11 -1.1 145.11 -2.42 C 145.11 -3.74 144.01 -4.84 142.69 -4.84 Z M 168.7 -2.2 L 168.7 -25.96 L 174.9 -25.96 C 176.22 -25.96 177.32 -27.06 177.32 -28.38 C 177.32 -29.7 176.22 -30.8 174.9 -30.8 L 157.65 -30.8 C 156.29 -30.8 155.23 -29.7 155.23 -28.38 C 155.23 -27.06 156.29 -25.96 157.65 -25.96 L 163.86 -25.96 L 163.86 -2.2 C 163.86 -0.84 164.96 0.22 166.28 0.22 C 167.6 0.22 168.7 -0.84 168.7 -2.2 Z M 187.53 -27.63 L 195.76 -1.89 C 196.64 0.57 200.02 0.66 200.95 -1.76 L 208.03 -19.58 L 214.72 -1.85 C 215.6 0.62 219.03 0.66 219.91 -1.85 L 228.67 -27.63 C 228.71 -27.85 228.76 -28.07 228.76 -28.34 C 228.76 -29.66 227.66 -30.76 226.34 -30.76 C 225.24 -30.76 224.36 -30.05 224.05 -29.08 L 217.18 -8.89 L 210.67 -26.18 C 209.79 -28.6 206.45 -28.69 205.52 -26.27 L 198.62 -8.89 L 192.19 -29 C 191.88 -30.01 190.96 -30.76 189.86 -30.76 C 188.54 -30.76 187.44 -29.66 187.44 -28.34 C 187.44 -28.07 187.48 -27.85 187.53 -27.63 Z M 206.18 -24.51 L 206.18 -24.46 Z M 255.07 -4.53 C 248.64 -4.53 244.16 -9.02 244.16 -15.44 C 244.16 -21.78 248.64 -26.27 255.07 -26.27 C 261.36 -26.27 265.89 -21.78 265.89 -15.44 C 265.89 -9.02 261.36 -4.53 255.07 -4.53 Z M 239.32 -15.44 C 239.32 -6.64 246.27 0.31 255.07 0.31 C 263.69 0.31 270.73 -6.64 270.73 -15.44 C 270.73 -24.16 263.69 -31.11 255.07 -31.11 C 246.27 -31.11 239.32 -24.16 239.32 -15.44 Z M 285.69 -2.2 L 285.69 -10.69 L 291.9 -10.69 C 291.9 -10.65 291.94 -10.65 291.94 -10.6 L 297 -1.06 C 297.4 -0.31 298.19 0.18 299.11 0.18 C 300.43 0.18 301.53 -0.88 301.53 -2.24 C 301.53 -2.64 301.4 -3.08 301.22 -3.39 L 296.78 -11.79 C 299.99 -13.46 302.24 -16.9 302.24 -20.81 C 302.24 -26.31 297.75 -30.8 292.25 -30.8 L 283.49 -30.8 C 282.04 -30.8 280.85 -29.61 280.85 -28.16 L 280.85 -2.2 C 280.85 -0.84 281.95 0.22 283.27 0.22 C 284.59 0.22 285.69 -0.84 285.69 -2.2 Z M 285.69 -15.53 L 285.69 -25.96 L 292.25 -25.96 C 295.37 -25.96 297.4 -23.94 297.4 -20.81 C 297.4 -17.6 295.37 -15.53 292.25 -15.53 Z M 317.2 -2.2 L 317.2 -9.94 L 317.33 -10.08 L 320.14 -13.2 L 331.32 -0.48 C 331.76 0.04 332.42 0.35 333.12 0.35 C 334.49 0.35 335.54 -0.75 335.54 -2.07 C 335.54 -2.68 335.32 -3.26 334.93 -3.7 L 323.4 -16.81 L 332.73 -27.1 C 333.08 -27.54 333.34 -28.12 333.34 -28.73 C 333.34 -30.1 332.24 -31.15 330.92 -31.15 C 330.22 -31.15 329.56 -30.84 329.12 -30.36 L 317.2 -17.16 L 317.2 -28.64 C 317.2 -29.96 316.1 -31.06 314.78 -31.06 C 313.46 -31.06 312.36 -29.96 312.36 -28.64 L 312.36 -2.2 C 312.36 -0.84 313.46 0.22 314.78 0.22 C 316.1 0.22 317.2 -0.84 317.2 -2.2 Z M 387.38 -2.99 L 376.86 -29.08 C 375.89 -31.37 372.72 -31.37 371.76 -29.08 L 361.24 -2.99 C 361.11 -2.68 361.06 -2.38 361.06 -2.02 C 361.06 -0.7 362.12 0.4 363.48 0.4 C 364.45 0.4 365.33 -0.22 365.68 -1.06 L 368.37 -7.7 L 380.25 -7.7 L 382.93 -1.06 C 383.28 -0.22 384.16 0.4 385.13 0.4 C 386.5 0.4 387.55 -0.7 387.55 -2.02 C 387.55 -2.38 387.51 -2.68 387.38 -2.99 Z M 370.3 -12.54 L 374.31 -22.44 L 378.31 -12.54 Z M 416.02 -4.84 L 402.51 -4.84 L 402.51 -28.64 C 402.51 -29.96 401.41 -31.06 400.09 -31.06 C 398.77 -31.06 397.67 -29.96 397.67 -28.64 L 397.67 -2.64 C 397.67 -1.19 398.86 0 400.31 0 L 416.02 0 C 417.34 0 418.44 -1.1 418.44 -2.42 C 418.44 -3.74 417.34 -4.84 416.02 -4.84 Z M 446.91 -4.84 L 433.4 -4.84 L 433.4 -28.64 C 433.4 -29.96 432.3 -31.06 430.98 -31.06 C 429.66 -31.06 428.56 -29.96 428.56 -28.64 L 428.56 -2.64 C 428.56 -1.19 429.75 0 431.2 0 L 446.91 0 C 448.23 0 449.33 -1.1 449.33 -2.42 C 449.33 -3.74 448.23 -4.84 446.91 -4.84 Z M 461.87 -25.96 L 462.79 -25.96 L 462.79 -4.84 L 461.87 -4.84 C 460.5 -4.84 459.45 -3.74 459.45 -2.42 C 459.45 -1.1 460.5 0 461.87 0 L 468.56 0 C 469.88 0 470.98 -1.1 470.98 -2.42 C 470.98 -3.74 469.88 -4.84 468.56 -4.84 L 467.63 -4.84 L 467.63 -25.96 L 468.56 -25.96 C 469.88 -25.96 470.98 -27.06 470.98 -28.38 C 470.98 -29.7 469.88 -30.8 468.56 -30.8 L 461.87 -30.8 C 460.5 -30.8 459.45 -29.7 459.45 -28.38 C 459.45 -27.06 460.5 -25.96 461.87 -25.96 Z M 507.41 -2.99 L 496.89 -29.08 C 495.92 -31.37 492.76 -31.37 491.79 -29.08 L 481.27 -2.99 C 481.14 -2.68 481.1 -2.38 481.1 -2.02 C 481.1 -0.7 482.15 0.4 483.52 0.4 C 484.48 0.4 485.36 -0.22 485.72 -1.06 L 488.4 -7.7 L 500.28 -7.7 L 502.96 -1.06 C 503.32 -0.22 504.2 0.4 505.16 0.4 C 506.53 0.4 507.58 -0.7 507.58 -2.02 C 507.58 -2.38 507.54 -2.68 507.41 -2.99 Z M 490.34 -12.54 L 494.34 -22.44 L 498.34 -12.54 Z M 522.54 -2.2 L 522.46 -21.96 L 539.13 -1.01 C 540.8 0.97 544.1 -0.13 544.1 -2.77 L 544.1 -28.64 C 544.1 -29.96 543 -31.06 541.68 -31.06 C 540.36 -31.06 539.26 -29.96 539.26 -28.64 L 539.26 -8.62 L 522.37 -29.83 C 520.83 -31.86 517.62 -30.54 517.62 -28.07 L 517.7 -2.16 C 517.7 -0.84 518.8 0.26 520.12 0.26 C 521.44 0.26 522.54 -0.84 522.54 -2.2 Z M 576.4 -6.6 C 574.6 -5.24 572.48 -4.53 569.98 -4.53 C 563.6 -4.53 559.06 -9.06 559.06 -15.44 C 559.06 -21.74 563.6 -26.27 569.98 -26.27 C 571.96 -26.27 573.58 -25.87 575.08 -24.99 C 575.43 -24.82 575.83 -24.68 576.27 -24.68 C 577.59 -24.68 578.69 -25.78 578.69 -27.1 C 578.69 -28.03 578.16 -28.82 577.41 -29.22 C 575.21 -30.45 572.66 -31.11 569.98 -31.11 C 561.22 -31.11 554.22 -24.11 554.22 -15.44 C 554.22 -6.69 561.22 0.31 569.98 0.31 C 573.41 0.31 576.66 -0.84 579.26 -2.73 C 579.88 -3.17 580.27 -3.92 580.27 -4.71 C 580.27 -6.03 579.17 -7.08 577.85 -7.08 C 577.32 -7.08 576.8 -6.91 576.4 -6.6 Z M 608.74 -4.84 L 595.23 -4.84 L 595.23 -12.98 L 605.66 -12.98 C 606.98 -12.98 608.08 -14.08 608.08 -15.4 C 608.08 -16.72 606.98 -17.82 605.66 -17.82 L 595.23 -17.82 L 595.23 -25.96 L 608.74 -25.96 C 610.06 -25.96 611.16 -27.06 611.16 -28.38 C 611.16 -29.7 610.06 -30.8 608.74 -30.8 L 593.03 -30.8 C 591.58 -30.8 590.39 -29.61 590.39 -28.16 L 590.39 -2.64 C 590.39 -1.19 591.58 0 593.03 0 L 608.74 0 C 610.06 0 611.16 -1.1 611.16 -2.42 C 611.16 -3.74 610.06 -4.84 608.74 -4.84 Z" stroke-linecap="round" />
</g>
</g>
</g>
<g transform="matrix(1.9211538461538462 0 0 1.9211538461538462 640.2028869143699 750.824885795676)" id="tagline-37306616-580d-47ae-856c-60bb3e27b58a-logo"  >
<g style=""  paint-order="stroke"   >
		<g transform="matrix(1 0 0 1 0 0)" id="tagline-37306616-580d-47ae-856c-60bb3e27b58a-logo-path-0"  >
<path style="stroke: none; stroke-width: 0; stroke-dasharray: none; stroke-linecap: butt; stroke-dashoffset: 0; stroke-linejoin: miter; stroke-miterlimit: 4; fill: rgb(0,51,153); fill-rule: nonzero; opacity: 1;"  paint-order="stroke"  transform=" translate(-280.61, 7.949999999999999)" d="M 2.29 -8.22 L 6.6 -8.22 C 8.57 -8.22 10.06 -6.57 10.06 -4.58 C 10.06 -2.59 8.59 -1.15 6.6 -1.15 L 2.29 -1.15 Z M 1.15 -0.69 C 1.15 -0.3 1.44 0 1.83 0 L 6.6 0 C 9.14 0 11.2 -2.02 11.2 -4.58 C 11.2 -6.6 9.87 -8.48 8.04 -9.12 C 8.91 -9.9 9.48 -11.06 9.48 -12.28 C 9.48 -14.34 7.79 -16.04 5.73 -16.04 L 1.83 -16.04 C 1.44 -16.04 1.15 -15.74 1.15 -15.35 Z M 2.29 -9.37 L 2.29 -14.89 L 5.73 -14.89 C 7.24 -14.89 8.34 -13.79 8.34 -12.28 C 8.34 -10.7 7.19 -9.37 5.73 -9.37 Z M 26.32 -15.53 L 26.32 -5.52 C 26.32 -3.14 24.53 -1.37 22.22 -1.37 C 19.86 -1.37 18.07 -3.14 18.07 -5.52 L 18.07 -15.53 C 18.07 -15.83 17.82 -16.1 17.5 -16.1 C 17.18 -16.1 16.93 -15.83 16.93 -15.53 L 16.93 -5.52 C 16.93 -2.59 19.31 -0.23 22.22 -0.23 C 25.08 -0.23 27.47 -2.59 27.47 -5.52 L 27.47 -15.53 C 27.47 -15.83 27.21 -16.1 26.89 -16.1 C 26.57 -16.1 26.32 -15.83 26.32 -15.53 Z M 33.56 -14.89 L 35.35 -14.89 L 35.35 -1.15 L 33.56 -1.15 C 33.24 -1.15 32.99 -0.89 32.99 -0.57 C 32.99 -0.25 33.24 0 33.56 0 L 38.28 0 C 38.58 0 38.85 -0.25 38.85 -0.57 C 38.85 -0.89 38.58 -1.15 38.28 -1.15 L 36.49 -1.15 L 36.49 -14.89 L 38.28 -14.89 C 38.58 -14.89 38.85 -15.14 38.85 -15.46 C 38.85 -15.78 38.58 -16.04 38.28 -16.04 L 33.56 -16.04 C 33.24 -16.04 32.99 -15.78 32.99 -15.46 C 32.99 -15.14 33.24 -14.89 33.56 -14.89 Z M 53.86 -1.15 L 45.52 -1.15 L 45.52 -15.53 C 45.52 -15.83 45.27 -16.1 44.94 -16.1 C 44.62 -16.1 44.37 -15.83 44.37 -15.53 L 44.37 -0.69 C 44.37 -0.3 44.67 0 45.06 0 L 53.86 0 C 54.15 0 54.43 -0.25 54.43 -0.57 C 54.43 -0.89 54.15 -1.15 53.86 -1.15 Z M 63.87 -16.04 L 60.64 -16.04 C 60.25 -16.04 59.95 -15.74 59.95 -15.35 L 59.95 -0.69 C 59.95 -0.3 60.25 0 60.64 0 L 63.87 0 C 68.15 0 71.63 -3.69 71.63 -8.04 C 71.63 -12.35 68.15 -16.04 63.87 -16.04 Z M 61.09 -1.15 L 61.09 -14.89 L 63.87 -14.89 C 67.58 -14.89 70.49 -11.8 70.49 -8.04 C 70.49 -4.24 67.58 -1.15 63.87 -1.15 Z M 76.81 -14.89 L 78.6 -14.89 L 78.6 -1.15 L 76.81 -1.15 C 76.49 -1.15 76.24 -0.89 76.24 -0.57 C 76.24 -0.25 76.49 0 76.81 0 L 81.53 0 C 81.83 0 82.1 -0.25 82.1 -0.57 C 82.1 -0.89 81.83 -1.15 81.53 -1.15 L 79.74 -1.15 L 79.74 -14.89 L 81.53 -14.89 C 81.83 -14.89 82.1 -15.14 82.1 -15.46 C 82.1 -15.78 81.83 -16.04 81.53 -16.04 L 76.81 -16.04 C 76.49 -16.04 76.24 -15.78 76.24 -15.46 C 76.24 -15.14 76.49 -14.89 76.81 -14.89 Z M 88.77 -0.53 L 88.72 -13.97 L 98.62 -0.3 C 99.08 0.27 99.99 -0.05 99.99 -0.76 L 99.99 -15.53 C 99.99 -15.83 99.74 -16.1 99.42 -16.1 C 99.1 -16.1 98.85 -15.83 98.85 -15.53 L 98.85 -1.95 L 88.84 -15.78 C 88.42 -16.33 87.58 -15.97 87.58 -15.3 L 87.62 -0.5 C 87.62 -0.21 87.87 0.07 88.19 0.07 C 88.51 0.07 88.77 -0.21 88.77 -0.53 Z M 114.97 -7.44 L 118.32 -7.44 L 118.32 -3.07 C 117.06 -1.86 115.41 -1.15 113.55 -1.15 C 109.64 -1.15 106.66 -4.1 106.66 -8.04 C 106.66 -11.93 109.64 -14.89 113.55 -14.89 C 115 -14.89 116.26 -14.48 117.38 -13.74 C 117.47 -13.68 117.58 -13.65 117.7 -13.65 C 118 -13.65 118.27 -13.9 118.27 -14.23 C 118.27 -14.43 118.16 -14.59 118 -14.71 C 116.71 -15.53 115.2 -16.04 113.55 -16.04 C 109.09 -16.04 105.51 -12.48 105.51 -8.04 C 105.51 -3.55 109.09 0 113.55 0 C 115.8 0 117.88 -0.94 119.35 -2.45 C 119.37 -2.5 119.46 -2.7 119.46 -2.86 L 119.46 -7.9 C 119.46 -8.29 119.17 -8.59 118.75 -8.59 L 114.97 -8.59 C 114.65 -8.59 114.4 -8.34 114.4 -8.02 C 114.4 -7.7 114.65 -7.44 114.97 -7.44 Z M 134.15 -0.53 L 134.1 -13.97 L 144 -0.3 C 144.46 0.27 145.37 -0.05 145.37 -0.76 L 145.37 -15.53 C 145.37 -15.83 145.12 -16.1 144.8 -16.1 C 144.48 -16.1 144.23 -15.83 144.23 -15.53 L 144.23 -1.95 L 134.22 -15.78 C 133.8 -16.33 132.96 -15.97 132.96 -15.3 L 133 -0.5 C 133 -0.21 133.25 0.07 133.57 0.07 C 133.89 0.07 134.15 -0.21 134.15 -0.53 Z M 160.58 -1.15 L 152.24 -1.15 L 152.24 -7.67 L 158.98 -7.67 C 159.28 -7.67 159.55 -7.93 159.55 -8.25 C 159.55 -8.57 159.28 -8.82 158.98 -8.82 L 152.24 -8.82 L 152.24 -14.89 L 160.58 -14.89 C 160.88 -14.89 161.15 -15.14 161.15 -15.46 C 161.15 -15.78 160.88 -16.04 160.58 -16.04 L 151.79 -16.04 C 151.4 -16.04 151.1 -15.74 151.1 -15.35 L 151.1 -0.69 C 151.1 -0.3 151.4 0 151.79 0 L 160.58 0 C 160.88 0 161.15 -0.25 161.15 -0.57 C 161.15 -0.89 160.88 -1.15 160.58 -1.15 Z M 172.72 -0.53 L 172.72 -14.89 L 177.26 -14.89 C 177.56 -14.89 177.83 -15.14 177.83 -15.46 C 177.83 -15.78 177.56 -16.04 177.26 -16.04 L 167.04 -16.04 C 166.72 -16.04 166.47 -15.78 166.47 -15.46 C 166.47 -15.14 166.72 -14.89 167.04 -14.89 L 171.58 -14.89 L 171.58 -0.53 C 171.58 -0.21 171.83 0.05 172.15 0.05 C 172.47 0.05 172.72 -0.21 172.72 -0.53 Z M 183.31 -15.39 L 187.77 -0.55 C 187.98 0.14 188.94 0.21 189.19 -0.48 L 193.55 -12.03 L 197.65 -0.5 C 197.9 0.16 198.81 0.21 199.07 -0.5 L 203.81 -15.39 C 203.92 -15.74 203.65 -16.13 203.26 -16.13 C 203.01 -16.13 202.78 -15.94 202.71 -15.71 L 198.31 -1.97 L 194.26 -13.4 C 194 -14.07 193.11 -14.11 192.86 -13.42 L 188.55 -1.97 L 184.43 -15.69 C 184.36 -15.94 184.13 -16.1 183.86 -16.1 C 183.49 -16.1 183.21 -15.74 183.31 -15.39 Z M 193.2 -12.99 L 193.2 -12.97 Z M 193.91 -12.99 L 193.91 -13.01 Z M 198.7 -0.94 L 198.7 -0.92 Z M 215.95 -1.15 C 212.01 -1.15 209.05 -4.1 209.05 -8.04 C 209.05 -11.93 212.01 -14.89 215.95 -14.89 C 219.8 -14.89 222.8 -11.93 222.8 -8.04 C 222.8 -4.1 219.8 -1.15 215.95 -1.15 Z M 207.91 -8.04 C 207.91 -3.55 211.46 0 215.95 0 C 220.35 0 223.94 -3.55 223.94 -8.04 C 223.94 -12.48 220.35 -16.04 215.95 -16.04 C 211.46 -16.04 207.91 -12.48 207.91 -8.04 Z M 230.59 -0.53 L 230.59 -6.71 L 234.69 -6.71 L 234.89 -6.71 L 238.06 -0.32 C 238.15 -0.14 238.33 0 238.56 0 C 238.88 0 239.13 -0.25 239.13 -0.57 C 239.13 -0.66 239.11 -0.76 239.06 -0.85 L 236.06 -6.92 C 237.87 -7.51 239.2 -9.25 239.2 -11.29 C 239.2 -13.77 237.16 -15.81 234.69 -15.81 L 230.13 -15.81 C 229.74 -15.81 229.44 -15.51 229.44 -15.12 L 229.44 -0.53 C 229.44 -0.21 229.69 0.05 230.02 0.05 C 230.34 0.05 230.59 -0.21 230.59 -0.53 Z M 230.59 -7.86 L 230.59 -14.66 L 234.69 -14.66 C 236.61 -14.66 238.06 -13.22 238.06 -11.29 C 238.06 -9.32 236.61 -7.86 234.69 -7.86 Z M 246.07 -0.53 L 246.07 -5.43 L 248.25 -7.86 L 255.03 -0.21 C 255.14 -0.09 255.31 -0.02 255.47 -0.02 C 255.79 -0.02 256.04 -0.27 256.04 -0.6 C 256.04 -0.73 255.99 -0.87 255.9 -0.99 L 249.05 -8.75 L 254.73 -15.07 C 254.85 -15.19 254.89 -15.33 254.89 -15.46 C 254.89 -15.78 254.64 -16.04 254.32 -16.04 C 254.16 -16.04 254 -15.97 253.88 -15.85 L 246.07 -7.15 L 246.07 -15.53 C 246.07 -15.83 245.82 -16.1 245.5 -16.1 C 245.18 -16.1 244.93 -15.83 244.93 -15.53 L 244.93 -0.53 C 244.93 -0.21 245.18 0.05 245.5 0.05 C 245.82 0.05 246.07 -0.21 246.07 -0.53 Z M 261.97 -1.63 C 262.91 -0.64 264.28 0 265.87 0 C 268.61 0 270.91 -2.02 270.91 -4.6 C 270.91 -7.65 268.57 -8.48 266.69 -9.19 C 264.86 -9.87 263 -10.4 263 -12.19 C 263 -13.72 264.28 -14.89 266.12 -14.89 C 267.13 -14.89 267.93 -14.52 268.52 -13.93 C 268.61 -13.81 268.77 -13.74 268.94 -13.74 C 269.23 -13.74 269.51 -14 269.51 -14.32 C 269.51 -14.48 269.44 -14.62 269.32 -14.73 C 268.55 -15.53 267.4 -16.04 266.12 -16.04 C 263.76 -16.04 261.86 -14.32 261.86 -12.19 C 261.86 -9.53 264.49 -8.77 266.28 -8.13 C 268.16 -7.42 269.76 -6.83 269.76 -4.6 C 269.76 -2.61 268.11 -1.15 265.87 -1.15 C 264.56 -1.15 263.53 -1.6 262.82 -2.41 C 262.7 -2.52 262.57 -2.59 262.38 -2.59 C 262.06 -2.59 261.81 -2.31 261.81 -2.02 C 261.81 -1.86 261.88 -1.72 261.97 -1.63 Z M 296.56 -0.78 C 295.92 -1.37 295.23 -2.02 294.52 -2.66 C 295.46 -3.92 296.08 -5.47 296.2 -6.99 C 296.22 -7.28 295.97 -7.61 295.62 -7.61 C 295.32 -7.61 295.07 -7.35 295.05 -7.06 C 294.96 -5.77 294.48 -4.47 293.7 -3.41 C 291.71 -5.25 289.67 -7.17 288.27 -8.89 C 288.61 -9.07 289.03 -9.25 289.44 -9.42 C 291.45 -10.17 292.67 -11.32 292.67 -12.92 C 292.67 -14.84 291 -16.13 289.03 -16.13 C 286.8 -16.13 285.34 -14.43 285.34 -12.39 C 285.34 -11.45 285.82 -10.38 286.62 -9.21 C 285.15 -8.16 284.26 -6.71 284.26 -4.88 C 284.26 -2.08 286.69 0.07 289.64 0.07 C 291.22 0.07 292.67 -0.66 293.77 -1.79 C 294.48 -1.15 295.16 -0.5 295.78 0.07 C 295.87 0.16 296.01 0.23 296.17 0.23 C 296.47 0.23 296.74 -0.05 296.74 -0.34 C 296.74 -0.53 296.68 -0.66 296.56 -0.78 Z M 285.41 -4.88 C 285.41 -6.32 286.09 -7.44 287.28 -8.32 C 288.77 -6.41 290.93 -4.4 292.97 -2.52 C 292.05 -1.65 290.9 -1.08 289.64 -1.08 C 287.22 -1.08 285.41 -2.68 285.41 -4.88 Z M 286.48 -12.39 C 286.48 -13.93 287.4 -14.98 289.03 -14.98 C 290.51 -14.98 291.52 -14.23 291.52 -12.92 C 291.52 -11.87 290.77 -11.16 289.03 -10.47 C 288.5 -10.29 288.02 -10.06 287.56 -9.8 C 286.89 -10.79 286.48 -11.66 286.48 -12.39 Z M 310.44 -14.89 L 312.23 -14.89 L 312.23 -1.15 L 310.44 -1.15 C 310.12 -1.15 309.87 -0.89 309.87 -0.57 C 309.87 -0.25 310.12 0 310.44 0 L 315.16 0 C 315.46 0 315.74 -0.25 315.74 -0.57 C 315.74 -0.89 315.46 -1.15 315.16 -1.15 L 313.38 -1.15 L 313.38 -14.89 L 315.16 -14.89 C 315.46 -14.89 315.74 -15.14 315.74 -15.46 C 315.74 -15.78 315.46 -16.04 315.16 -16.04 L 310.44 -16.04 C 310.12 -16.04 309.87 -15.78 309.87 -15.46 C 309.87 -15.14 310.12 -14.89 310.44 -14.89 Z M 322.4 -0.53 L 322.36 -13.97 L 332.25 -0.3 C 332.71 0.27 333.63 -0.05 333.63 -0.76 L 333.63 -15.53 C 333.63 -15.83 333.37 -16.1 333.05 -16.1 C 332.73 -16.1 332.48 -15.83 332.48 -15.53 L 332.48 -1.95 L 322.47 -15.78 C 322.06 -16.33 321.21 -15.97 321.21 -15.3 L 321.26 -0.5 C 321.26 -0.21 321.51 0.07 321.83 0.07 C 322.15 0.07 322.4 -0.21 322.4 -0.53 Z M 339.7 -1.63 C 340.64 -0.64 342.01 0 343.59 0 C 346.34 0 348.63 -2.02 348.63 -4.6 C 348.63 -7.65 346.29 -8.48 344.42 -9.19 C 342.58 -9.87 340.73 -10.4 340.73 -12.19 C 340.73 -13.72 342.01 -14.89 343.84 -14.89 C 344.85 -14.89 345.65 -14.52 346.25 -13.93 C 346.34 -13.81 346.5 -13.74 346.66 -13.74 C 346.96 -13.74 347.23 -14 347.23 -14.32 C 347.23 -14.48 347.16 -14.62 347.05 -14.73 C 346.27 -15.53 345.13 -16.04 343.84 -16.04 C 341.48 -16.04 339.58 -14.32 339.58 -12.19 C 339.58 -9.53 342.22 -8.77 344 -8.13 C 345.88 -7.42 347.49 -6.83 347.49 -4.6 C 347.49 -2.61 345.84 -1.15 343.59 -1.15 C 342.29 -1.15 341.25 -1.6 340.54 -2.41 C 340.43 -2.52 340.29 -2.59 340.11 -2.59 C 339.79 -2.59 339.54 -2.31 339.54 -2.02 C 339.54 -1.86 339.61 -1.72 339.7 -1.63 Z M 355.37 -0.53 L 355.37 -6.94 L 359.47 -6.94 C 361.94 -6.94 363.98 -9 363.98 -11.52 C 363.98 -14 361.94 -16.04 359.47 -16.04 L 354.91 -16.04 C 354.52 -16.04 354.22 -15.74 354.22 -15.35 L 354.22 -0.53 C 354.22 -0.21 354.47 0.05 354.79 0.05 C 355.11 0.05 355.37 -0.21 355.37 -0.53 Z M 355.37 -8.09 L 355.37 -14.89 L 359.47 -14.89 C 361.39 -14.89 362.83 -13.45 362.83 -11.52 C 362.83 -9.55 361.39 -8.09 359.47 -8.09 Z M 369.16 -14.89 L 370.94 -14.89 L 370.94 -1.15 L 369.16 -1.15 C 368.84 -1.15 368.58 -0.89 368.58 -0.57 C 368.58 -0.25 368.84 0 369.16 0 L 373.87 0 C 374.17 0 374.45 -0.25 374.45 -0.57 C 374.45 -0.89 374.17 -1.15 373.87 -1.15 L 372.09 -1.15 L 372.09 -14.89 L 373.87 -14.89 C 374.17 -14.89 374.45 -15.14 374.45 -15.46 C 374.45 -15.78 374.17 -16.04 373.87 -16.04 L 369.16 -16.04 C 368.84 -16.04 368.58 -15.78 368.58 -15.46 C 368.58 -15.14 368.84 -14.89 369.16 -14.89 Z M 381.11 -0.53 L 381.11 -6.71 L 385.21 -6.71 L 385.42 -6.71 L 388.58 -0.32 C 388.67 -0.14 388.86 0 389.09 0 C 389.41 0 389.66 -0.25 389.66 -0.57 C 389.66 -0.66 389.64 -0.76 389.59 -0.85 L 386.59 -6.92 C 388.4 -7.51 389.73 -9.25 389.73 -11.29 C 389.73 -13.77 387.69 -15.81 385.21 -15.81 L 380.66 -15.81 C 380.27 -15.81 379.97 -15.51 379.97 -15.12 L 379.97 -0.53 C 379.97 -0.21 380.22 0.05 380.54 0.05 C 380.86 0.05 381.11 -0.21 381.11 -0.53 Z M 381.11 -7.86 L 381.11 -14.66 L 385.21 -14.66 C 387.14 -14.66 388.58 -13.22 388.58 -11.29 C 388.58 -9.32 387.14 -7.86 385.21 -7.86 Z M 395.82 -14.89 L 397.61 -14.89 L 397.61 -1.15 L 395.82 -1.15 C 395.5 -1.15 395.25 -0.89 395.25 -0.57 C 395.25 -0.25 395.5 0 395.82 0 L 400.54 0 C 400.84 0 401.11 -0.25 401.11 -0.57 C 401.11 -0.89 400.84 -1.15 400.54 -1.15 L 398.75 -1.15 L 398.75 -14.89 L 400.54 -14.89 C 400.84 -14.89 401.11 -15.14 401.11 -15.46 C 401.11 -15.78 400.84 -16.04 400.54 -16.04 L 395.82 -16.04 C 395.5 -16.04 395.25 -15.78 395.25 -15.46 C 395.25 -15.14 395.5 -14.89 395.82 -14.89 Z M 407.78 -0.53 L 407.73 -13.97 L 417.63 -0.3 C 418.09 0.27 419 -0.05 419 -0.76 L 419 -15.53 C 419 -15.83 418.75 -16.1 418.43 -16.1 C 418.11 -16.1 417.86 -15.83 417.86 -15.53 L 417.86 -1.95 L 407.85 -15.78 C 407.43 -16.33 406.59 -15.97 406.59 -15.3 L 406.63 -0.5 C 406.63 -0.21 406.88 0.07 407.21 0.07 C 407.53 0.07 407.78 -0.21 407.78 -0.53 Z M 433.98 -7.44 L 437.33 -7.44 L 437.33 -3.07 C 436.07 -1.86 434.42 -1.15 432.56 -1.15 C 428.65 -1.15 425.67 -4.1 425.67 -8.04 C 425.67 -11.93 428.65 -14.89 432.56 -14.89 C 434.01 -14.89 435.27 -14.48 436.39 -13.74 C 436.48 -13.68 436.6 -13.65 436.71 -13.65 C 437.01 -13.65 437.28 -13.9 437.28 -14.23 C 437.28 -14.43 437.17 -14.59 437.01 -14.71 C 435.73 -15.53 434.21 -16.04 432.56 -16.04 C 428.1 -16.04 424.52 -12.48 424.52 -8.04 C 424.52 -3.55 428.1 0 432.56 0 C 434.81 0 436.89 -0.94 438.36 -2.45 C 438.38 -2.5 438.47 -2.7 438.47 -2.86 L 438.47 -7.9 C 438.47 -8.29 438.18 -8.59 437.76 -8.59 L 433.98 -8.59 C 433.66 -8.59 433.41 -8.34 433.41 -8.02 C 433.41 -7.7 433.66 -7.44 433.98 -7.44 Z M 461.27 -7.44 L 464.61 -7.44 L 464.61 -3.07 C 463.35 -1.86 461.7 -1.15 459.85 -1.15 C 455.93 -1.15 452.95 -4.1 452.95 -8.04 C 452.95 -11.93 455.93 -14.89 459.85 -14.89 C 461.29 -14.89 462.55 -14.48 463.67 -13.74 C 463.76 -13.68 463.88 -13.65 463.99 -13.65 C 464.29 -13.65 464.57 -13.9 464.57 -14.23 C 464.57 -14.43 464.45 -14.59 464.29 -14.71 C 463.01 -15.53 461.5 -16.04 459.85 -16.04 C 455.38 -16.04 451.81 -12.48 451.81 -8.04 C 451.81 -3.55 455.38 0 459.85 0 C 462.09 0 464.18 -0.94 465.64 -2.45 C 465.67 -2.5 465.76 -2.7 465.76 -2.86 L 465.76 -7.9 C 465.76 -8.29 465.46 -8.59 465.05 -8.59 L 461.27 -8.59 C 460.95 -8.59 460.69 -8.34 460.69 -8.02 C 460.69 -7.7 460.95 -7.44 461.27 -7.44 Z M 472.42 -0.53 L 472.42 -6.71 L 476.52 -6.71 L 476.73 -6.71 L 479.89 -0.32 C 479.98 -0.14 480.17 0 480.4 0 C 480.72 0 480.97 -0.25 480.97 -0.57 C 480.97 -0.66 480.94 -0.76 480.9 -0.85 L 477.9 -6.92 C 479.71 -7.51 481.04 -9.25 481.04 -11.29 C 481.04 -13.77 479 -15.81 476.52 -15.81 L 471.97 -15.81 C 471.58 -15.81 471.28 -15.51 471.28 -15.12 L 471.28 -0.53 C 471.28 -0.21 471.53 0.05 471.85 0.05 C 472.17 0.05 472.42 -0.21 472.42 -0.53 Z M 472.42 -7.86 L 472.42 -14.66 L 476.52 -14.66 C 478.45 -14.66 479.89 -13.22 479.89 -11.29 C 479.89 -9.32 478.45 -7.86 476.52 -7.86 Z M 493.89 -1.15 C 489.95 -1.15 486.99 -4.1 486.99 -8.04 C 486.99 -11.93 489.95 -14.89 493.89 -14.89 C 497.74 -14.89 500.74 -11.93 500.74 -8.04 C 500.74 -4.1 497.74 -1.15 493.89 -1.15 Z M 485.85 -8.04 C 485.85 -3.55 489.4 0 493.89 0 C 498.29 0 501.88 -3.55 501.88 -8.04 C 501.88 -12.48 498.29 -16.04 493.89 -16.04 C 489.4 -16.04 485.85 -12.48 485.85 -8.04 Z M 505.73 -15.39 L 510.2 -0.55 C 510.4 0.14 511.37 0.21 511.62 -0.48 L 515.97 -12.03 L 520.07 -0.5 C 520.32 0.16 521.24 0.21 521.49 -0.5 L 526.23 -15.39 C 526.35 -15.74 526.07 -16.13 525.68 -16.13 C 525.43 -16.13 525.2 -15.94 525.13 -15.71 L 520.74 -1.97 L 516.68 -13.4 C 516.43 -14.07 515.54 -14.11 515.28 -13.42 L 510.98 -1.97 L 506.85 -15.69 C 506.78 -15.94 506.56 -16.1 506.28 -16.1 C 505.91 -16.1 505.64 -15.74 505.73 -15.39 Z M 515.63 -12.99 L 515.63 -12.97 Z M 516.34 -12.99 L 516.34 -13.01 Z M 521.12 -0.94 L 521.12 -0.92 Z M 537.98 -0.53 L 537.98 -14.89 L 542.52 -14.89 C 542.82 -14.89 543.09 -15.14 543.09 -15.46 C 543.09 -15.78 542.82 -16.04 542.52 -16.04 L 532.3 -16.04 C 531.98 -16.04 531.73 -15.78 531.73 -15.46 C 531.73 -15.14 531.98 -14.89 532.3 -14.89 L 536.84 -14.89 L 536.84 -0.53 C 536.84 -0.21 537.09 0.05 537.41 0.05 C 537.73 0.05 537.98 -0.21 537.98 -0.53 Z M 549.76 -0.53 L 549.76 -7.44 L 558.92 -7.44 L 558.92 -0.53 C 558.92 -0.21 559.17 0.05 559.5 0.05 C 559.82 0.05 560.07 -0.21 560.07 -0.53 L 560.07 -15.53 C 560.07 -15.83 559.82 -16.1 559.5 -16.1 C 559.17 -16.1 558.92 -15.83 558.92 -15.53 L 558.92 -8.59 L 549.76 -8.59 L 549.76 -15.53 C 549.76 -15.83 549.51 -16.1 549.19 -16.1 C 548.87 -16.1 548.61 -15.83 548.61 -15.53 L 548.61 -0.53 C 548.61 -0.21 548.87 0.05 549.19 0.05 C 549.51 0.05 549.76 -0.21 549.76 -0.53 Z" stroke-linecap="round" />
</g>
</g>
</g>
</svg>